<svg xmlns="http://www.w3.org/2000/svg" viewBox="0 0 512 512" width="100%" height="100%">
  <path fill="#ffffff" d="M448.1 256c0-38.9-13.8-73-41.3-102.5s-62.2-44.3-103.3-44.3h-87c-41.1 0-75.8 14.8-103.3 44.3S72 217.1 72 256s13.8 72.9 41.3 102.4 62.2 44.3 103.3 44.3h87c41.1 0 75.8-14.8 103.3-44.3s41.2-63.5 41.2-102.4zm-209.3 79.2l-40.8-40.7 40.8-40.8-20.4-20.3-40.8 40.7-40.8-40.7-20.4 20.3 40.8 40.8-40.8 40.7 20.4 20.4 40.8-40.8 40.8 40.8zm122.4 0l-20.3-20.4-40.9 40.8-40.8-40.8-20.3 20.4 40.8 40.7-40.8 40.7 20.3 20.4 40.8-40.8 40.9 40.8 20.3-20.4-40.8-40.7z"/>
</svg> 